<svg height="194" viewBox="0 0 244 194" width="244" xmlns="http://www.w3.org/2000/svg"><g fill="none" fill-rule="evenodd" transform="translate(.513 .287)"><path d="m151.487 192.713-151-47.451006v-112.548994l151 32.154145z" fill="#d3b875"/><path d="m242.487 141.122063-91 51.590937v-127.3265061l91-43.6734939z" fill="#b78c58"/><path d="m.487 32.7196077 92.1225932-32.0066077 149.8774068 20.367601-91.065666 43.632399z" fill="#f2d08b"/><path d="m195.095904 107.713-4.880842-7.331877-2.845003-51.1142027-.883059-.1982823 16.859413-8.355638 3.140587 57.5730288-2.442269-3.7707885-3.255126 6.7035397-3.277296-2.9327512z" fill="#987848"/><path d="m186.140258 48.713-68.653258-15.3118049 14.278844-6.6881951 71.721156 13.4998944z" fill="#b0935c"/><path d="m44.487 17.713 5-2z" fill="#b5a68b"/><path d="m101.183611 30.713-56.696611-12.5616559 5.4963328-1.9405497 7.0775737-2.4977944 58.4260935 10.9260717z" fill="#b0935c"/><path d="m81.3393453 50.713-18.8523453-3.9713072 38.605329-16.0286928 16.394671 3.5518641z" fill="#b0935c"/><path d="m167.487 10.7485976-1-.0711952z" fill="#b5a68b"/><path d="m131.619384 26.713-16.132384-2.9673086 35.992256-15.0326914 14.492441 1.9678493.515303.0703739z" fill="#b0935c"/><path d="m117.492961 33.713-16.005961-3.7330371 14.020119-6.2669629 15.979881 3.1453853z" fill="#967b49"/><path d="m62.487 46.713v118.14353l19 5.85647v-120.0318008z" fill="#846b3d"/><path d="m184.487 160.221894c0 1.372297-1.008528 1.841766-2.447164 2.484654l-15.101965 7.735718c-2.04301 1.029599-2.450871-1.112733-2.450871-2.485029v-23.604775c0-1.372296.882462-1.69769 2.450871-2.484654l15.101965-7.735718c3.196144-1.65631 2.239526 1.711609 2.447164 8.075407z" fill="#fff"/><g fill="#4c402c"><path d="m166.487 146.543211 15-7.830211v.89996l-15 8.10004z"/><path d="m166.487 149.543263 15-7.830263v.89992l-15 8.10008z"/><path d="m166.487 153.543263 15-7.830263v.900319l-15 8.099681z"/><path d="m166.487 162.565826 9.88017-4.852826.11983.917426-10 5.082574z"/><path d="m166.487 164.565826 9.88017-4.852826.11983.917817-10 5.082183z"/><path d="m166.487 166.566142 9.88017-4.853142.11983.917486-10 5.082514z"/></g></g></svg>